<mxfile host="65bd71144e">
    <diagram id="NH2mQKqkzRMuAYZVtnaX" name="Page-1">
        <mxGraphModel dx="1980" dy="944" grid="1" gridSize="12" guides="1" tooltips="1" connect="1" arrows="1" fold="1" page="1" pageScale="1" pageWidth="1300" pageHeight="900" background="none" math="0" shadow="0">
            <root>
                <mxCell id="0"/>
                <mxCell id="1" style="" parent="0"/>
                <mxCell id="30" value="" style="whiteSpace=wrap;html=1;labelBackgroundColor=none;sketch=0;strokeColor=#5F43E9;strokeWidth=3;fontFamily=Helvetica;fontSize=12;fontColor=#232F3E;fillColor=#CCCCCC;gradientColor=none;gradientDirection=north;rounded=1;arcSize=5;" vertex="1" parent="1">
                    <mxGeometry x="12" y="12" width="1272" height="876" as="geometry"/>
                </mxCell>
                <mxCell id="33" value="Terraform" style="shape=image;verticalLabelPosition=middle;labelBackgroundColor=none;verticalAlign=middle;aspect=fixed;imageAspect=0;image=data:image/png,iVBORw0KGgoAAAANSUhEUgAAAOEAAAEACAYAAABF3BHpAAAABGdBTUEAALGPC/xhBQAAACBjSFJNAAB6JgAAgIQAAPoAAACA6AAAdTAAAOpgAAA6mAAAF3CculE8AAAAB3RJTUUH5godDyci4PNxYAAAAAZiS0dEAAAAAAAA+UO7fwAAF1tJREFUeNrtnQl0HNWZhbXa8oa3eMOADd66ZWKEvKirXkFC2CE444AhhMyhX4kBQiYDZwYmxMOWDMMyDMMWIGEIdmBId4uAw+6AkxyWYTGYsBqTBDDUq255Q9jGi2wjz32taiMTZNRSd1Uv955zjziJu9Wqft/5/1tvqYqo5RwphRqAn1UVFEX5L2k5TwHC5/HzONtyhkQjKcJIUT5D+IxtqV3wZkB4jzTdmbZwh0Qb2ip5dSjKXwgzTtmWe4k0ktNRIQfxClGU/xBq78T//oq0lA1PQF6s45WiKH8hzPgjQJiA59mmOw55sYZXjKL8hTDjVbZQ/4329AjbTI1EXuTNG4ryGULt7fByW7j/ZhvJxmYjOYBXj6L8hTDjTaiKj+BnMyrjQVFTsUWlKJ8hzDgJ/wpAniqbWodzSoOi/Icw45WoiNfZlnsMzKpIUQFAqN0OLwOMl0YtZxKvKkX5D+FnedFSi6Wlvh+NpIbx6lKU/xBqd8AOfDfy4jeRFTnRT1E+Q5jxDvh1vP+NaFMP4ZWmKP8hzFTFjfDTAPEi5MUDeMUpyl8Id69FhVfDj9uW813kxX145SnKXwi7rrpR8D22SJrIi/34DVCE0F8IM95qC7UCLeqVetUNvwWKEPoPofan8CfS0rv6VTPy4gh+GxQhDA7GLXo9qjTdryEv9ue3QhHCYNyBz7IBP++wLXd/23Srm40kvyCKEAZh5MQUIDzfFu4o7tKgCGGQMFrqZQA5F63qMG4kpghhkBbqTmkkD41aDtejUoQwwLzYCl+OyhgCjAP5zVGEMBjvBISvok2V8JRoJFXLb5AihMFYzy8+ZAv3W7ZIjkNerOY3SRHCYKy3TF2P6qifpzGc3yZFCIPxDlTFVwHhj+FZyIs8NZwihAF5I2B8wracH9hCTWVepAhhcE4Bxnvg+baRGsP5RYoQBmO9ZepNKdyb0KIeBXNKgyKEAXkz/AKq4iVRPb9oKt5FpQhhQF6b3tUv1Hly1tqhaFH5xVOEMCB/iL/317blfpvfPEUIA5zS8E4Nv7XZSB7KEUARwgBX3aRPDbfUgmgkNZIjgSKEwe3qXwcvRV48DVmRj3ujCGGALarCtYhHLcfiqKAIYUDbpeBt8PvIiz/hszQoQhgsjL9FReRRjBQhDNAP8RFvFCEkhBQhJITdXTP8f7UwHw9O9UkNExdXRUKxakLYOwi/Li01NSrUwKipCCOVtaz6xDBjWssMIxSbQgh7ASGu2a2A8EUp1Dm2UJPlzHU8G5XqkYxwYrAIx6cCwmut+vgaKxQ7jhD2EkJvxY0+jnGpNN3j9anhHGJUd0LbWWuF45MA4Lnw6wBwJ7wLEB5PCPsKYfqQYmcTILwLlVE0G0kugaO65r5qMxQfD/BOAoQPArxP0vBlTAhzA+Hus1GFWmUL9zK0qrOjkVQdh2CZ575wfKQIJ44EgDcDuOQe8BHCvECYcTsgfAZt6lm23kjc0Ma8WG7whWKDRH28EZBdAr8B7/hCAAlh3iDMuA0QxlAdv4P3Yl4sk9yHqjcFFfBcALYE3tgtfITQFwjTuzSkXotqqZv12ah8lkbJ5r4qI9QyBlDNh++FU18KHyH0DcKMt8AvwpejOs7kg1BLRyKUGIjcdzSA+hm8osfwEULfIcz4Izt9Nqr7A9tMTeTx/UWd+2rgQ9B6LgBML8DbswaQEAYCYZezblSLzos8vr/ocl+FEY6NFfXp3PcEvLZX8BHCwCHMbCR+GzDehN91GMwpjWKogPWJeYAnAX/QJ/gIYUFAmPEGeDmy4mXSSE5CXuSJ4QUoI5xo8Ob7VvS69SSEBQthxmvwvn9AXjxbzlo3nGejFobM6S37dcl9n+QMPkJYkBCmH4IKu8iJjzQbycOIQKDTDgOQ+84EKH/0ct+nOQeQEBYkhF2fpfEe8uItUVPxmA2/c184LgDIr2G119UuhLCkIez6LI2VyIsXoj3lcxfzP+0wAbnvPwHHu/A2uCOvABLCooAwc/DURvzOZ5EX5xOVvEw7DAF85wCK1+AtvsBHCIsKwq4HFX+MvHgvPts0opOT3NfPDLXo1vMhuN1X+AhhUULY1auRF6+URnJf23RreCc1q5azElWvVoQT05D9fuFVvl2BmRAWLYQZvwYIz4xGUqPxebll6ktWupiAD+BNgC8SuZpsJ4RlD6H2NnyeR+Fj0KoOw+fmetQ9W86K2ZN/Uw3oxqACngwAlxUEfISwpCDMuBUt6n/hs80CjENQHXkKXEV6l8MIY1rL4VZ94u68TLYTQkL4BX7TFuoCW7ghGVldV6550ZzeMhBVL4zsdzUqYGvBwUcISxrCjB+Twj0DVXEiXFVG7aduPaeI+oQNCF8qWPgIYVlAqE+B05uJ70Kbqnf1jyr5O5/1iQNQ+U4ChA94Uw67CCEhLBAY1TvwVWhT5yArDiw1+IxwYiRaziMwqG/3jpboKAoACWH5QNhl5c1TaE1/aFvu9BKZduiPlnM2Kt9lgPDNnG4xIoSEMI8gfgzfBxhPazaS44s195mhBHJfeqnZk/CmooOPEJYthJ8tgUsfVKx+hjb1+KipiuYUOFS+sah6pwPA/83qVDNCSAgL1Prx4K/YOi+abiTa0FZbwMvN9INUjgKEt2HwvrP7WQ6EkBCWiPURG0vxd51faI8J9w7UnQ74LsegfRHeWhLwEUJC2M0uDYX29Dc6L+LvHx5w7quKTLtvrFWf0LlvaZ9PNSOEhLCIrHf16ymNO6VwDw/ioGIRSvQX4cTfYZAuht8vSfgIISHs4a7+12yhrrSN5FQ/DirW24zgWWg9b8IAXZn3oyUKBkLhPE7oCOFevB5/73NoUc+C98lj9hsj6uMXe08x2lDy8O0BoZGcZVvOr+DNhI8Q7iUvpgChvi5Hw7U5zH6DkPvO8E41W1c28O0B4cx11QBwDPr/b+Ei/54AEsK9uB1OYrz8MmokD0Je7Otys9kiHL/Pm+/bUXYAZiDU0hcTF7UWYXx/fZsaXkEICeFevFUfsWFb7vnIikN6sc3oAOS+a72bLu1lCd/nIcwIA68S7ocwPhW+ze5chU8ICWG3j3xD9/QCPLeHrecAMxw/2ztKvr2oFlr7BWFGtql0m9rfNl2BC/2gd9u6gxASwm7Wo36CLupudFTjuq1+odgcDLpHSm6yPV8Q7lEdI6nB0lTfw4V+yWtDOgghIfwCv4tr1tj9ms/YeRh0SYLXCwi7tKr7o0W9Wh/P7q057CCEhI8Q+gjh7lZVKANZ8V5cdMdrUwkhTQj9hDBdFRva6qTpnowLvwRe680jEUJCSAj9grBLXhyBAfmv+AJegDeVUItKCAlhcUCYUbORPARt6s34It4qkRaVEBLC4oJwd160nLnwPfhCPiCEhJAQBgBhukVtXD9YCnUuvpQnvbxICAkhIfQTQm86oxr+KgbrAnw5z3nbYgghISSEfkHYZeVNHfwN5MUb8CW9UUR5kRASwtKA0JvOqJJGchSyop7SWNS5Cp8QEkLaNwi7TGfUSFNNxgDWefFx73AhQkgICaHfwhc1UArViBb1R/jilsM7CCEhJIQBCFlxGHwEYLxJn/JFCAkhIQxA+vAgabjjpXDnSkst9lbdEEJCSAh9hzGSqsXA1nnxTFTGQmhRCSEhLC8Iu+ZFQDgNvtS2HDfAtaiEkBCWJ4RdtksNtY1kgxRKb5naSQgJISEMJi9WAcIR8LEY9MsIISEkhEHBaKpqDWOz6Z6HCpkkhISQEAagZiNZYc9ZXSMjqanIivoUuA15zouEkBASwr3cSe0nTVegOupT4LbkaVc/ISSEhLAHd1KH6SkN+P+8XRodhJAQEsJgVt5MsIWjT4H7q1cZCSEhJIQB3EmttYVqwkBY6J0C104ICSEhDCYvDpHCORUD4hF4TR/yIiEkhISwj3lxP1TGH3u7+jf2Ii8SQkJICHO08ma2bTk3YoC8mmWLSggJISHMYV6sk6Y6wcuLH/SwKhJCQkgI85AX9ZTG2Xbn/OIGQkgICWFwq29CXl58YS8tKiEkhIQwr1nRcqrgowDjNRg8bxNCQkgIg8mKlXLO6qFSqPkYQHrLlEsICSEhDGY6owaeArCaURmXeEdsEEJCSAgDWP42wDbdWQDxYgyoS6NCHUAICSEh9L9FrQKII5AXD4iaqo4QEkJCWKAihISQEBJCQkgICSEhJISEkBASQkJYxhDOWT1OmupKb4cGASSEWVuEYykzHP9HEY4PJFG9neg3Va00knp+8bE8nXNDCEvR4fgnVn3sDni8EU7UwAQqRxP+li3USm8tagchJISf86fwNlS/hyPTEoc0TFxcTWryMdkvVD/4n23LWYUBuY0QEkK4A96Cv/15OIr8N4yk+NGmNrVOlELdiUHZmoOzbghhEcOHvLcS1e+nZig2gXT4DaOp6qRwjkJefNCDcSchLBsI2+FVyH7/Y4bjEbSe/UhEgGo2kiNs0z0LberTGKTrS/wGTrlDuBNeDT8m6uOnRUKxISSgkPKi5UyG9ZTGKwX0IFRCmLvWcwP8NOC7ELlvP454f6CagFZzLAZdj+9yRSOpAdJ0v47Begf8Z3grISyJ1vN1ZL8bkPtmkAx/IbxIWuoatJlHytlrBkYb2rKZzhgFgL+DQZuAVQnlxXKCUE85fAjfjdx3InJfHanwe8XMZ8vWlsv0tIQ7O2uQTTUJvgDv8bsSWXlTLhDq1vMB/D3nRjjlUBAQ7vLayicAY7TZSE7MckqjX+fZqOoq+E/wdkJY0K3nMyIcuwS570BSUFgQZrwWQC1Em3pK1FQjs4IxkhoshXMi3uM2eFWRrropZQhXIvddBx8OV5KAwoVwl5fv9PK1GwCkpStdVjBazji87nS8/v4cPmGKEPbe+vMuQvU7dc6UlqHIfgSwCCDMWAP0FP7dAgzM6VnnRaEOhi+AnyWEgXiTqI8/bIXjzfh5oDm9hWs9ixDCXV5LuRbt6aPIi2djgI7Jqio2rtPH9wuAeAXe5z1C6Iu3wy9Z9bELzXB8hhFO8K5nkUOY8Q7vGRj3Asa5yH893j+Gf1sZNd3h+H0neHnxY0KYN7+PvHc9Ws8jAOFQjvLSgnBXl7uo+rTv62wzOQN5sSaLrFgtOx/39l3bcn5foLs0ihXCdfhscXieGY6Ni4RiNRzhpQthxm1oUZehKl4Ij8sqK1pOHUCcjtf9E97nTULYJ29F1dNTDhKfbaIVirH1LCMId3kLudcCJj2/OB+Dt8eLfdPbpYzkELxuDmC+Hu+TJIRZ2xH18QXGtES9GYoN4oguTwgz1pPzq1Hd7pKmeygyYM9bVFPpFnW4bbpH4vX3F8DBU8UAob7rucgMx2ejAu7TMHFxFUczIdydF/Ge79uW+1M5Z804Xe16+lmajWSN3dQ6FiA2o11d7t0IIoR7egfgewaf4Tj8HIrcR/gIYbdTGtvQZr4NS7jHIGpoAWEtqukE2TmlkSKEuw9WWouWUwK+Qch9nO8jhD3PjMh7T6DlbARcNT3dpYF2tgIQVgGGBnzGRfomkI9L4AoJQr3LoR1t5y0zD7p/JCDkShdC2GtvA4S3yqbW/dGq9s/2c9qmOh4t6is+fdZCgFDDtwm/60mAdzDbTkKYw6qoT3BzL0KVG40MmBWMqKKDAeL3vQUDW0oUQr27faMIx/6ElvNkTjcQwny5Xeq1pKZ7ClrV0Wg9s8o3+PfjpXB+jvf5ME+T/UFBuBm5720Rjl8Kj+boJIR+WE/2L5TCFfpZivqZij0GsXPlzdfQ4j7gzS9+WsQQbtOnmon6+EJjWryxYeJirnQhhP7fjQRMl6M6NmYz2Z/OikINgc9Bm/p0eh9kcUGoTzVz4cUAcJ45vWUfjkhCGKS347M8j8p4LmCcDAh6nBd1BZVNqQPxusv1MR05OAUu3xDqmy7r4afMcPx8I5zYlyOREBbSo9E+AohxVLb5gGrfbPIi/m0/vMbA33Q73uetPpwank8IN8MvI/tdg9w3C61nLUchISzU5xPqozFuti33KBlpHZbNyhsANBQwzsPrW2C3F3kxHxDq/X1/hu8U4dixkVBsMEcfVegQZqx3aVyRXuQtVFZVA9V0Eqx3aSzxJvuDgFBPObSh8rXgdWdYoRhbT6roINzlTUMsQZv6D4BjEpzNMrgaaboz8Xq9BG5ZD+cXcwXhDnipCMUvNkOxEEcbVcwQZqzSBw3rLVORVFbnZEZNtQ/+1qPxWn1w1btfclBxLiBcAV9l1cea+CAVqpQgzHgFPvdNyItHoNJltaKk2UiOs01XnwKnb/6s72Y9al8gbIV/IerjJ/FBKlQpQ5g5Be55tJpXAKxpWVXFhrZaABhOzy8KtfQLqmJvINQT7o8CPp379re40JoqAwgzW6Z0NXsUefFstJxZLfVKP9hGqEa89lJchxW9hRDgvSjCiQtEON4Ac8qBKisIP38KXAKt5lxUuuwWhlvOCFwHC1Xx56iQW7KA0LHC8f8ww3GzaWrLEB6oS5UzhF3vouq8eCMgOiSb62CbqhLezxbuKQDxhr1BKMKxvweIV8PH4r9HcZsRRQj/tkXdgBbzZX0KHGAam0VWrJBNrf3szuc1DtwLhCM0fMh9bD0pQvglp8DpvPgHieqWzUHFFEUIc58X1yHv3WsbyVnZHFRMUYQw97s0krJzy9QofvMUIQywMgLCt/B3fw+5b7A03Up9qBRFEcJA7PwREApbuAOjh37E6QWKEAZn9xbZ1DoFFXIARwRFCAMyAFwFny8ttS/aVJ5wRhHCwPKintKwnPlRU/Xn6KAIYXD+S1Qo7v+jCGGhPpWJogghIaQIISGkKEJICClCSAgpihASQooQEkKKIoSEkCKEhJCiCCEhpAghIaQoQkgIKUJICCmKEBJCihASQooihISQIoSEkKIIISGkCCEhpChCSAgpQkgIKYoQEkKKEBJCiiKEhJAihISQogghIaQIISGkKEJICClCSAgpihASQooQEkKKIoSEkCKEhJCiCCEhpAghIaQoQkgIKUJICCmKEBJCqkAgvBGDbhPBI4RUQLKF+iYG3XIPxA4CSAipABSNpEZL4fw7Bt87cDshJIRUUDBazgxUxvsxCB14JyGkqGDa00r4dNtylmIwpgghRQVRERvaKuXs1V+RpvoXDMhl8AZCSFFBwGiq2qhQjdJybsDAfA3eRggpKgA1G8nBtumegDZ1EQboe2WQFwkhVaB50XLGws0YpPrmzWpCSFHB5MVqabphaakFGKzPwhsJIUUFAaPlDEVWPBwD9lq0qW/h53ZCSFFBtKimGou8OA8D95fwGkJIUcG0qDWohpNgG/4dBvFmQkhRQcAYSdVJ4TQgL14IGF8v4ruohJAq/rwICCPw1bblfEQIKSq4vDgaefEYKdQDhJCigsuL1dJUE6RwT5eW8wYhpKhgsmJF1Ej2B4Qh5MUfoU1dSwgpKpisWAkQB2GQz0JWTMBbCCFFBZEVLadKGslh0nRPxIB/nhBSVDBZsQIgVkVNNRrV8YcY+H8poOM1CCFVhtXRVGFkxdu9jcQ7CCFFBVMd+wPEo9Gu/hYgrA1wsp8QUmUOYyQ1TAolAcNz3i6NTwkhRQUBo+Xo9ajXAoo34a2EkKKCy4sGWtQY4PirT1WREFLUF+TFAQDx2wBkCbyOEFJUcHnxK9JyLgMoz8BbCCFFBZMVK72Dim/xToHbQQgpKoisKJSe0pgLL/TyIiGkqACyYqVs0s/SSE9pPJyjvEgIKSprGE3VTwrnYLtzl8bTfcyLhJCieivvoOLD0qfAWWpFL/MiIaSoPudFyxmdntLozIspQkhRQbSokVQtsuJkaamzpOU8nsWDbQghReUURssZBAi/iqp4Earjyh6suiGEFJWXFtVUw5EX9anh18PrCSFFBVEVG9qqUQ3HSOEeJ4XzYDePByeEFOVPXnT2Q5t6hndQMSGkqIDyYh0gHO8dVLyJEFJUUHlRqEEykpohhYoRQooKJitWRGevqZSmOyhqJENoV/flVcle/w8fzf668seFPQAAACV0RVh0ZGF0ZTpjcmVhdGUAMjAyMi0xMC0yOVQxNTozOTozNCswMDowMNH7NnMAAAAldEVYdGRhdGU6bW9kaWZ5ADIwMjItMTAtMjlUMTU6Mzk6MzQrMDA6MDCgpo7PAAAAAElFTkSuQmCC;fontColor=#5F43E9;align=left;labelBorderColor=none;labelPosition=right;spacing=8;" vertex="1" parent="1">
                    <mxGeometry x="612" y="36" width="26.37" height="30" as="geometry"/>
                </mxCell>
                <mxCell id="36" value="" style="sketch=0;points=[[0,0,0],[0.25,0,0],[0.5,0,0],[0.75,0,0],[1,0,0],[0,1,0],[0.25,1,0],[0.5,1,0],[0.75,1,0],[1,1,0],[0,0.25,0],[0,0.5,0],[0,0.75,0],[1,0.25,0],[1,0.5,0],[1,0.75,0]];outlineConnect=0;fontColor=#232F3E;gradientColor=#F78E04;gradientDirection=north;fillColor=#D05C17;strokeColor=#ffffff;dashed=0;verticalLabelPosition=bottom;verticalAlign=top;align=center;html=1;fontSize=12;fontStyle=0;aspect=fixed;shape=mxgraph.aws4.resourceIcon;resIcon=mxgraph.aws4.ec2;labelBackgroundColor=none;strokeWidth=5;fontFamily=Helvetica;" vertex="1" parent="1">
                    <mxGeometry x="612" y="420" width="60" height="60" as="geometry"/>
                </mxCell>
                <mxCell id="23" value="Diagrams" parent="0"/>
                <mxCell id="31" value="AWS Cloud" style="points=[[0,0],[0.25,0],[0.5,0],[0.75,0],[1,0],[1,0.25],[1,0.5],[1,0.75],[1,1],[0.75,1],[0.5,1],[0.25,1],[0,1],[0,0.75],[0,0.5],[0,0.25]];outlineConnect=0;gradientColor=none;html=1;whiteSpace=wrap;fontSize=12;fontStyle=0;container=1;pointerEvents=0;collapsible=0;recursiveResize=0;shape=mxgraph.aws4.group;grIcon=mxgraph.aws4.group_aws_cloud_alt;strokeColor=#232F3E;fillColor=none;verticalAlign=top;align=left;spacingLeft=30;fontColor=#232F3E;dashed=0;labelBackgroundColor=none;sketch=0;strokeWidth=3;fontFamily=Helvetica;" vertex="1" parent="23">
                    <mxGeometry x="72" y="84" width="810" height="770" as="geometry"/>
                </mxCell>
                <mxCell id="37" value="" style="edgeStyle=orthogonalEdgeStyle;html=1;endArrow=block;elbow=vertical;startArrow=none;endFill=1;strokeColor=#545B64;rounded=0;strokeWidth=2;fontFamily=Helvetica;fontSize=12;fontColor=#5F43E9;sourcePerimeterSpacing=6;targetPerimeterSpacing=6;curved=1;jumpStyle=none;jumpSize=9;anchorPointDirection=1;" edge="1" parent="31">
                    <mxGeometry width="100" relative="1" as="geometry">
                        <mxPoint x="600" y="366" as="sourcePoint"/>
                        <mxPoint x="700" y="366" as="targetPoint"/>
                    </mxGeometry>
                </mxCell>
            </root>
        </mxGraphModel>
    </diagram>
</mxfile>